# xmcd
#
# Track frame offsets: 
#        150
#        16939
#        39383
#        67564
#        87741
#        108775
#        132106
#        152923
#        171279
#        203911
#        220080
#
# Disc length: 3218 seconds
#
# Revision: 1
# Processed by: cddbd v1.5.2PL0 Copyright (c) Steve Scherf et al.
# Submitted via: ExactAudioCopy v1.0b3
#
DISCID=8a0c900b
DTITLE=Luther "Guitar Junior" Johnson and The Magic Rockers - Got To F
DTITLE=ind a Way
DYEAR=1995
DGENRE=Blues
TTITLE0=On Your Way Fishin'
TTITLE1=Got To Find a Way
TTITLE2=Luther's Blues
TTITLE3=Home Alone
TTITLE4=You Ought To Be Ashamed
TTITLE5=So Mean to Me
TTITLE6=I Pity the Fool
TTITLE7=Just Like Mama Said
TTITLE8=I Gotta Move Out of My Neighborhood
TTITLE9=I Got the Blues
TTITLE10=Talkin' on My Phone
EXTD=
EXTT0=
EXTT1=
EXTT2=
EXTT3=
EXTT4=
EXTT5=
EXTT6=
EXTT7=
EXTT8=
EXTT9=
EXTT10=
PLAYORDER=
